<?xml version="1.0" ?><!DOCTYPE svg  PUBLIC '-//W3C//DTD SVG 1.1//EN'  'http://www.w3.org/Graphics/SVG/1.1/DTD/svg11.dtd'><svg enable-background="new 0 0 160 80" id="Layer_1" version="1.1" viewBox="0 0 160 80" xml:space="preserve" xmlns="http://www.w3.org/2000/svg" xmlns:xlink="http://www.w3.org/1999/xlink"><g><rect height="6" width="7" x="83" y="17"/><rect height="6" width="6" x="77" y="17"/><rect height="6" width="6" x="71" y="17"/><rect height="6" width="6" x="59" y="18"/><rect height="6" width="6" x="59" y="24"/><rect height="6" width="6" x="59" y="30"/><rect height="6" width="6" x="59" y="36"/><rect height="6" width="6" x="77" y="36"/><rect height="6" width="6" x="71" y="36"/><rect height="6" width="6" x="59" y="42"/><rect height="6" width="6" x="59" y="48"/><rect height="6" width="5" x="96" y="18"/><rect height="7" width="6" x="59" y="11"/><rect height="7" width="5" x="96" y="11"/><rect height="5" width="7" x="83" y="6"/><rect height="5" width="6" x="77" y="6"/><rect height="5" width="6" x="71" y="6"/><rect height="5" width="6" x="65" y="6"/><rect height="5" width="6" x="90" y="6"/><rect height="6" width="5" x="96" y="24"/><rect height="6" width="5" x="96" y="30"/><rect height="6" width="5" x="96" y="36"/><rect height="6" width="5" x="96" y="42"/><rect height="6" width="5" x="96" y="48"/><rect height="7" width="5" x="96" y="54"/><rect height="6" width="7" x="83" y="48"/><rect height="6" width="6" x="77" y="48"/><rect height="6" width="6" x="71" y="48"/><rect height="7" width="6" x="59" y="54"/><rect height="5" width="6" x="90" y="61"/><rect height="5" width="7" x="83" y="61"/><rect height="5" width="6" x="77" y="61"/><rect height="5" width="6" x="71" y="61"/><rect height="5" width="6" x="65" y="61"/></g></svg>